<svg width="50" height="50" viewBox="0 0 50 50" fill="none" xmlns="http://www.w3.org/2000/svg">
<path d="M18.7474 33.3337H22.9141V16.667H18.7474V33.3337ZM27.0807 33.3337H31.2474V16.667H27.0807V33.3337ZM24.9974 45.8337C22.1155 45.8337 19.4071 45.2864 16.8724 44.192C14.3377 43.0989 12.1328 41.6149 10.2578 39.7399C8.38281 37.8649 6.89878 35.66 5.80573 33.1253C4.71128 30.5906 4.16406 27.8823 4.16406 25.0003C4.16406 22.1184 4.71128 19.41 5.80573 16.8753C6.89878 14.3406 8.38281 12.1357 10.2578 10.2607C12.1328 8.38574 14.3377 6.90102 16.8724 5.80658C19.4071 4.71352 22.1155 4.16699 24.9974 4.16699C27.8793 4.16699 30.5877 4.71352 33.1224 5.80658C35.6571 6.90102 37.862 8.38574 39.737 10.2607C41.612 12.1357 43.096 14.3406 44.1891 16.8753C45.2835 19.41 45.8307 22.1184 45.8307 25.0003C45.8307 27.8823 45.2835 30.5906 44.1891 33.1253C43.096 35.66 41.612 37.8649 39.737 39.7399C37.862 41.6149 35.6571 43.0989 33.1224 44.192C30.5877 45.2864 27.8793 45.8337 24.9974 45.8337Z" fill="black"/>
</svg>
