<svg width="50" height="50" viewBox="0 0 50 50" fill="none" xmlns="http://www.w3.org/2000/svg">
<path d="M24.9974 43.75C22.5522 43.75 20.2621 43.2971 18.1273 42.3912C15.9911 41.4841 14.1328 40.2589 12.5522 38.7156C10.9703 37.1737 9.7144 35.3607 8.78456 33.2767C7.85603 31.194 7.39176 28.9599 7.39176 26.5744C7.39176 24.1889 7.85603 21.9542 8.78456 19.8702C9.7144 17.7875 10.9703 15.9746 12.5522 14.4313C14.1328 12.8893 15.9911 11.6654 18.1273 10.7595C20.2621 9.85242 22.5522 9.39886 24.9974 9.39886C27.4426 9.39886 29.7333 9.85242 31.8695 10.7595C34.0043 11.6654 35.8627 12.8893 37.4446 14.4313C39.0252 15.9746 40.2804 17.7875 41.2102 19.8702C42.1388 21.9542 42.603 24.1889 42.603 26.5744C42.603 28.9599 42.1388 31.194 41.2102 33.2767C40.2804 35.3607 39.0252 37.1737 37.4446 38.7156C35.8627 40.2589 34.0043 41.4841 31.8695 42.3912C29.7333 43.2971 27.4426 43.75 24.9974 43.75ZM30.4747 34.5897L33.2134 31.9179L26.9536 25.8111V17.0324H23.0412V27.3378L30.4747 34.5897ZM12.4778 6.25L15.2165 8.92176L6.90272 17.0324L4.16406 14.3607L12.4778 6.25ZM37.517 6.25L45.8307 14.3607L43.0921 17.0324L34.7783 8.92176L37.517 6.25ZM24.9974 39.9332C28.8119 39.9332 32.0475 38.6368 34.704 36.0439C37.3618 33.4523 38.6907 30.2958 38.6907 26.5744C38.6907 22.8531 37.3618 19.6959 34.704 17.1031C32.0475 14.5114 28.8119 13.2156 24.9974 13.2156C21.1828 13.2156 17.9473 14.5114 15.2908 17.1031C12.633 19.6959 11.3041 22.8531 11.3041 26.5744C11.3041 30.2958 12.633 33.4523 15.2908 36.0439C17.9473 38.6368 21.1828 39.9332 24.9974 39.9332Z" fill="black"/>
</svg>
