<svg width="50" height="50" viewBox="0 0 50 50" fill="none" xmlns="http://www.w3.org/2000/svg">
<path d="M45.8307 45.833L40.6224 45.833V38.6715L39.7109 39.7132C37.7144 41.9702 35.4358 43.5544 32.875 44.4658C30.3142 45.3773 27.7318 45.833 25.1276 45.833C20.3099 45.833 16.0234 44.3903 12.2682 41.5049C8.51476 38.6177 6.03038 34.8521 4.8151 30.208H10.2839C11.4123 33.333 13.3325 35.8504 16.0443 37.7601C18.7578 39.6698 21.7856 40.6247 25.1276 40.6247C27.0807 40.6247 28.9792 40.2558 30.8229 39.5179C32.6684 38.7801 34.3724 37.6299 35.9349 36.0674L36.5859 35.4163H30.2057V30.208L45.8307 30.208V45.833ZM45.1797 19.7913H39.7109C38.5825 16.6663 36.6623 14.149 33.9505 12.2393C31.237 10.3295 28.2092 9.37468 24.8672 9.37468C22.9141 9.37468 21.0148 9.7436 19.1693 10.4814C17.3255 11.2193 15.6224 12.3695 14.0599 13.932L13.4089 14.583H19.7891L19.7891 19.7913H4.16406L4.16406 4.16634H9.3724V11.3278L10.2839 10.2861C12.4106 8.1594 14.7214 6.60732 17.2161 5.62989C19.7127 4.65419 22.263 4.16634 24.8672 4.16634C29.6849 4.16634 33.9705 5.60992 37.724 8.49707C41.4792 11.3825 43.9644 15.1472 45.1797 19.7913Z" fill="black"/>
</svg>
