<svg width="50" height="50" viewBox="0 0 50 50" fill="none" xmlns="http://www.w3.org/2000/svg">
<path d="M4.16406 43.75V37.1875C4.16406 35.8594 4.44058 34.6383 4.99361 33.5242C5.54538 32.4117 6.27896 31.5625 7.19437 30.9766C9.15144 29.7656 11.1401 28.857 13.1603 28.2508C15.1805 27.6461 17.2322 27.3438 19.3156 27.3438C21.3989 27.3438 23.4507 27.6461 25.4709 28.2508C27.4911 28.857 29.4797 29.7656 31.4368 30.9766C32.3522 31.5625 33.0858 32.4117 33.6375 33.5242C34.1906 34.6383 34.4671 35.8594 34.4671 37.1875V43.75H4.16406ZM38.255 43.75V36.7188C38.255 35 37.8686 33.3492 37.0959 31.7664C36.3219 30.1852 35.2247 28.8281 33.8042 27.6953C35.4141 27.9297 36.9292 28.3297 38.3497 28.8953C39.7701 29.4625 41.0959 30.1563 42.3269 30.9766C43.4633 31.7578 44.3314 32.6266 44.9311 33.5828C45.5309 34.5406 45.8307 35.5859 45.8307 36.7188V43.75H38.255ZM19.3156 25C17.2322 25 15.4488 24.082 13.9652 22.2461C12.4816 20.4102 11.7398 18.2031 11.7398 15.625C11.7398 13.0469 12.4816 10.8398 13.9652 9.00391C15.4488 7.16797 17.2322 6.25 19.3156 6.25C21.3989 6.25 23.1824 7.16797 24.666 9.00391C26.1495 10.8398 26.8913 13.0469 26.8913 15.625C26.8913 18.2031 26.1495 20.4102 24.666 22.2461C23.1824 24.082 21.3989 25 19.3156 25ZM38.255 15.625C38.255 18.2031 37.5132 20.4102 36.0296 22.2461C34.546 24.082 32.7625 25 30.6792 25C30.332 25 29.8901 24.9516 29.3535 24.8547C28.8168 24.7562 28.3749 24.6484 28.0277 24.5313C28.88 23.2813 29.5346 21.8945 29.9917 20.3711C30.45 18.8477 30.6792 17.2656 30.6792 15.625C30.6792 13.9844 30.45 12.4023 29.9917 10.8789C29.5346 9.35547 28.88 7.96875 28.0277 6.71875C28.4696 6.52344 28.9115 6.39609 29.3535 6.33672C29.7954 6.27891 30.2373 6.25 30.6792 6.25C32.7625 6.25 34.546 7.16797 36.0296 9.00391C37.5132 10.8398 38.255 13.0469 38.255 15.625ZM7.95194 39.0625H30.6792V37.1875C30.6792 36.7578 30.5927 36.3672 30.4197 36.0156C30.2455 35.6641 30.0163 35.3906 29.7322 35.1953C28.0277 34.1406 26.3074 33.3492 24.5713 32.8211C22.8351 32.2945 21.0833 32.0312 19.3156 32.0312C17.5479 32.0312 15.796 32.2945 14.0599 32.8211C12.3238 33.3492 10.6035 34.1406 8.89891 35.1953C8.61482 35.3906 8.38628 35.6641 8.2133 36.0156C8.03906 36.3672 7.95194 36.7578 7.95194 37.1875V39.0625ZM19.3156 20.3125C20.3572 20.3125 21.2493 19.8531 21.9917 18.9344C22.7329 18.0172 23.1035 16.9141 23.1035 15.625C23.1035 14.3359 22.7329 13.2328 21.9917 12.3156C21.2493 11.3969 20.3572 10.9375 19.3156 10.9375C18.2739 10.9375 17.3825 11.3969 16.6413 12.3156C15.8989 13.2328 15.5277 14.3359 15.5277 15.625C15.5277 16.9141 15.8989 18.0172 16.6413 18.9344C17.3825 19.8531 18.2739 20.3125 19.3156 20.3125Z" fill="white"/>
</svg>
