<svg width="50" height="50" viewBox="0 0 50 50" fill="none" xmlns="http://www.w3.org/2000/svg">
<path d="M8.33073 41.6663C7.1849 41.6663 6.20434 41.2587 5.38906 40.4434C4.5724 39.6268 4.16406 38.6455 4.16406 37.4997V12.4997C4.16406 11.3538 4.5724 10.3733 5.38906 9.55801C6.20434 8.74134 7.1849 8.33301 8.33073 8.33301H20.8307L24.9974 12.4997H41.6641C42.8099 12.4997 43.7911 12.908 44.6078 13.7247C45.4231 14.54 45.8307 15.5205 45.8307 16.6663V37.4997C45.8307 38.6455 45.4231 39.6268 44.6078 40.4434C43.7911 41.2587 42.8099 41.6663 41.6641 41.6663H8.33073ZM8.33073 12.4997V37.4997H41.6641V16.6663H23.2786L19.112 12.4997H8.33073Z" fill="white"/>
</svg>
