<svg width="50" height="50" viewBox="0 0 50 50" fill="none" xmlns="http://www.w3.org/2000/svg">
<path d="M42.6889 18.4969C45.0669 16.3468 46.1026 12.8283 45.7701 8.0383L45.6849 6.7917H25.0441V6.78516H4.31159L4.22516 8.03175C3.89125 12.8217 4.92703 16.3415 7.3063 18.4903C9.47212 20.4466 12.146 20.6836 13.5825 20.6509L13.6794 20.8513L11.6393 22.3545L13.2276 24.5125L15.8478 22.5863C17.7518 26.0249 20.0433 27.6617 20.1585 27.7429L20.3222 27.8581V31.3661H21.1511L19.4632 35.9466H17.1259V41.5353H24.9511V41.5432H32.8694V35.9544H30.532L28.8441 31.374H29.673V27.8673L29.8367 27.7521C29.9506 27.6709 32.2434 26.0341 34.1474 22.5954L36.7676 24.5216L38.3559 22.3637L36.3158 20.863L36.4127 20.6627C37.8492 20.6915 40.5244 20.4545 42.6889 18.4969ZM9.08584 16.4842C7.55247 15.0844 6.80085 12.7274 6.84668 9.46691H11.8763L10.6559 10.3259L12.1997 12.5179L13.6846 11.4717C13.5707 13.2944 13.5864 15.6488 14.0696 17.9338C13.555 17.9953 10.961 18.1957 9.08584 16.4842ZM31.082 37.7431V39.7532H25.0441V39.7453H18.9133V37.734H24.9511V37.7431H31.082ZM27.8856 28.0768V29.5853H25.0454V29.5774H22.1109V28.0689H24.9511V28.0768H27.8856ZM23.0563 31.3648H24.9511V31.3727H26.9389L28.6267 35.9531H25.0441V35.9453H21.3685L23.0563 31.3648ZM33.6105 19.53C32.157 23.3025 29.8799 25.4147 29.0929 26.0668H25.0441V26.0576H20.9023C20.1127 25.4068 17.8382 23.2947 16.3834 19.5222C14.6143 14.9325 15.7732 8.83706 15.8256 8.57255H24.9511V8.58041H34.1709C34.222 8.84492 35.3809 14.9417 33.6105 19.53ZM35.9256 17.9417C36.4088 15.6567 36.4258 13.3023 36.3093 11.4795L37.7942 12.5258L39.338 10.3338L38.1189 9.47476H43.1485C43.1944 12.7353 42.4427 15.0923 40.9094 16.4921C39.0342 18.2022 36.4389 18.0019 35.9256 17.9417Z" fill="white"/>
</svg>
