<svg width="50" height="50" viewBox="0 0 50 50" fill="none" xmlns="http://www.w3.org/2000/svg">
<path d="M8.79369 38.542C10.877 36.4972 13.2983 34.8861 16.0576 33.7087C18.8153 32.5327 21.7952 31.9448 24.9974 31.9448C28.1996 31.9448 31.1803 32.5327 33.9395 33.7087C36.6972 34.8861 39.1178 36.4972 41.2011 38.542V8.79662H8.79369V38.542ZM24.9974 27.3151C27.235 27.3151 29.1448 26.5242 30.7266 24.9425C32.3083 23.3607 33.0992 21.4509 33.0992 19.2133C33.0992 16.9756 32.3083 15.0659 30.7266 13.4841C29.1448 11.9023 27.235 11.1114 24.9974 11.1114C22.7597 11.1114 20.85 11.9023 19.2682 13.4841C17.6864 15.0659 16.8955 16.9756 16.8955 19.2133C16.8955 21.4509 17.6864 23.3607 19.2682 24.9425C20.85 26.5242 22.7597 27.3151 24.9974 27.3151ZM8.79369 45.8337C7.52054 45.8337 6.43027 45.3807 5.52286 44.4749C4.61699 43.5675 4.16406 42.4772 4.16406 41.204V8.79662C4.16406 7.52347 4.61699 6.4332 5.52286 5.52579C6.43027 4.61992 7.52054 4.16699 8.79369 4.16699H41.2011C42.4742 4.16699 43.5645 4.61992 44.4719 5.52579C45.3778 6.4332 45.8307 7.52347 45.8307 8.79662V41.204C45.8307 42.4772 45.3778 43.5675 44.4719 44.4749C43.5645 45.3807 42.4742 45.8337 41.2011 45.8337H8.79369ZM13.4233 41.204H36.5715V40.6253C34.9511 39.275 33.1571 38.2627 31.1895 37.5883C29.2219 36.9124 27.1579 36.5744 24.9974 36.5744C22.8369 36.5744 20.7729 36.9124 18.8053 37.5883C16.8377 38.2627 15.0437 39.275 13.4233 40.6253V41.204ZM24.9974 22.6855C24.0329 22.6855 23.2134 22.3475 22.5391 21.6716C21.8631 20.9972 21.5252 20.1778 21.5252 19.2133C21.5252 18.2488 21.8631 17.4293 22.5391 16.755C23.2134 16.079 24.0329 15.7411 24.9974 15.7411C25.9619 15.7411 26.7813 16.079 27.4557 16.755C28.1317 17.4293 28.4696 18.2488 28.4696 19.2133C28.4696 20.1778 28.1317 20.9972 27.4557 21.6716C26.7813 22.3475 25.9619 22.6855 24.9974 22.6855Z" fill="#9E9696"/>
</svg>
