<svg width="50" height="50" viewBox="0 0 50 50" fill="none" xmlns="http://www.w3.org/2000/svg">
<path d="M42.59 45.8337L28.0067 31.2503C26.8492 32.1762 25.5182 32.9093 24.0136 33.4494C22.509 33.9895 20.9079 34.2596 19.2104 34.2596C15.0051 34.2596 11.4465 32.8036 8.53443 29.8915C5.62085 26.9779 4.16406 23.4185 4.16406 19.2133C4.16406 15.008 5.62085 11.4486 8.53443 8.53505C11.4465 5.62301 15.0051 4.16699 19.2104 4.16699C23.4156 4.16699 26.975 5.62301 29.8886 8.53505C32.8006 11.4486 34.2567 15.008 34.2567 19.2133C34.2567 20.9108 33.9866 22.5119 33.4465 24.0165C32.9063 25.5212 32.1733 26.8522 31.2474 28.0096L45.8307 42.5929L42.59 45.8337ZM19.2104 29.63C22.1039 29.63 24.5638 28.6176 26.59 26.5929C28.6147 24.5667 29.627 22.1068 29.627 19.2133C29.627 16.3198 28.6147 13.8599 26.59 11.8337C24.5638 9.80897 22.1039 8.79662 19.2104 8.79662C16.3168 8.79662 13.857 9.80897 11.8307 11.8337C9.80604 13.8599 8.79369 16.3198 8.79369 19.2133C8.79369 22.1068 9.80604 24.5667 11.8307 26.5929C13.857 28.6176 16.3168 29.63 19.2104 29.63Z" fill="white"/>
</svg>
