<svg width="50" height="50" viewBox="0 0 50 50" fill="none" xmlns="http://www.w3.org/2000/svg">
<path d="M26.0391 31.2503C27.4974 31.2503 28.73 30.7469 29.737 29.7399C30.7439 28.733 31.2474 27.5003 31.2474 26.042V14.5837H37.4974V10.417H29.1641V21.8753C28.7127 21.5281 28.2266 21.2677 27.7057 21.0941C27.1849 20.9205 26.6293 20.8337 26.0391 20.8337C24.5807 20.8337 23.3481 21.3371 22.3411 22.3441C21.3342 23.351 20.8307 24.5837 20.8307 26.042C20.8307 27.5003 21.3342 28.733 22.3411 29.7399C23.3481 30.7469 24.5807 31.2503 26.0391 31.2503ZM16.6641 37.5003C15.5182 37.5003 14.5377 37.0927 13.7224 36.2774C12.9057 35.4607 12.4974 34.4795 12.4974 33.3337V8.33366C12.4974 7.18783 12.9057 6.20658 13.7224 5.38991C14.5377 4.57463 15.5182 4.16699 16.6641 4.16699H41.6641C42.8099 4.16699 43.7911 4.57463 44.6078 5.38991C45.4231 6.20658 45.8307 7.18783 45.8307 8.33366V33.3337C45.8307 34.4795 45.4231 35.4607 44.6078 36.2774C43.7911 37.0927 42.8099 37.5003 41.6641 37.5003H16.6641ZM16.6641 33.3337H41.6641V8.33366H16.6641V33.3337ZM8.33073 45.8337C7.1849 45.8337 6.20434 45.426 5.38906 44.6107C4.5724 43.7941 4.16406 42.8128 4.16406 41.667V12.5003H8.33073V41.667H37.4974V45.8337H8.33073Z" fill="black"/>
</svg>
