<svg width="50" height="50" viewBox="0 0 50 50" fill="none" xmlns="http://www.w3.org/2000/svg">
<path d="M25 45.8337C23.2812 45.8337 21.8104 45.3241 20.5875 44.305C19.3625 43.2842 18.75 42.0576 18.75 40.6253C18.75 39.193 19.3625 37.9665 20.5875 36.9456C21.8104 35.9265 23.2812 35.417 25 35.417C26.7188 35.417 28.1906 35.9265 29.4156 36.9456C30.6385 37.9665 31.25 39.193 31.25 40.6253C31.25 42.0576 30.6385 43.2842 29.4156 44.305C28.1906 45.3241 26.7188 45.8337 25 45.8337ZM25 30.2087C23.2812 30.2087 21.8104 29.6982 20.5875 28.6774C19.3625 27.6583 18.75 26.4326 18.75 25.0003C18.75 23.568 19.3625 22.3415 20.5875 21.3206C21.8104 20.3015 23.2812 19.792 25 19.792C26.7188 19.792 28.1906 20.3015 29.4156 21.3206C30.6385 22.3415 31.25 23.568 31.25 25.0003C31.25 26.4326 30.6385 27.6583 29.4156 28.6774C28.1906 29.6982 26.7188 30.2087 25 30.2087ZM25 14.5837C23.2812 14.5837 21.8104 14.0732 20.5875 13.0524C19.3625 12.0333 18.75 10.8076 18.75 9.37533C18.75 7.94303 19.3625 6.71734 20.5875 5.69824C21.8104 4.67741 23.2812 4.16699 25 4.16699C26.7188 4.16699 28.1906 4.67741 29.4156 5.69824C30.6385 6.71734 31.25 7.94303 31.25 9.37533C31.25 10.8076 30.6385 12.0333 29.4156 13.0524C28.1906 14.0732 26.7188 14.5837 25 14.5837Z" fill="black"/>
</svg>
