<svg width="50" height="50" viewBox="0 0 50 50" fill="none" xmlns="http://www.w3.org/2000/svg">
<path d="M16.6693 37.5003H33.3359V33.3337H16.6693V37.5003ZM16.6693 29.167H33.3359V25.0003H16.6693V29.167ZM12.5026 45.8337C11.3568 45.8337 10.3762 45.426 9.56094 44.6107C8.74427 43.7941 8.33594 42.8128 8.33594 41.667V8.33366C8.33594 7.18783 8.74427 6.20658 9.56094 5.38991C10.3762 4.57463 11.3568 4.16699 12.5026 4.16699H29.1693L41.6693 16.667V41.667C41.6693 42.8128 41.2616 43.7941 40.4464 44.6107C39.6297 45.426 38.6484 45.8337 37.5026 45.8337H12.5026ZM27.0859 18.7503V8.33366H12.5026V41.667H37.5026V18.7503H27.0859Z" fill="black"/>
</svg>
