<svg width="50" height="50" viewBox="0 0 50 50" fill="none" xmlns="http://www.w3.org/2000/svg">
<path d="M31.9418 45.8337L18.0529 40.9725L7.28906 45.1392C6.51746 45.4479 5.80372 45.3607 5.14786 44.8776C4.49199 44.3962 4.16406 43.7503 4.16406 42.9401V10.5327C4.16406 10.0312 4.30912 9.58752 4.59925 9.20171C4.88783 8.81591 5.28289 8.52656 5.78443 8.33366L18.0529 4.16699L31.9418 9.0281L42.7057 4.86144C43.4773 4.55279 44.1911 4.63921 44.8469 5.1207C45.5028 5.60372 45.8307 6.25033 45.8307 7.06051V39.4679C45.8307 39.9695 45.6857 40.4131 45.3955 40.7989C45.107 41.1847 44.7119 41.4741 44.2104 41.667L31.9418 45.8337ZM29.627 40.1624V13.079L20.3678 9.83829V36.9216L29.627 40.1624ZM34.2567 40.1624L41.2011 37.8475V10.417L34.2567 13.079V40.1624ZM8.79369 39.5837L15.7381 36.9216V9.83829L8.79369 12.1531V39.5837Z" fill="#9E9696"/>
</svg>
