<svg width="50" height="50" viewBox="0 0 50 50" fill="none" xmlns="http://www.w3.org/2000/svg">
<path d="M19.2967 45.8337L18.4675 39.167C18.0184 38.9934 17.5955 38.785 17.1989 38.542C16.8009 38.2989 16.4119 38.0385 16.0318 37.7607L9.86473 40.3649L4.16406 30.4691L9.50196 26.4066C9.46741 26.1635 9.45013 25.9288 9.45013 25.7024V24.2962C9.45013 24.0712 9.46741 23.8371 9.50196 23.5941L4.16406 19.5316L9.86473 9.63574L16.0318 12.2399C16.4119 11.9621 16.8092 11.7017 17.2238 11.4587C17.6384 11.2156 18.053 11.0073 18.4675 10.8337L19.2967 4.16699H30.6981L31.5272 10.8337C31.9764 11.0073 32.4 11.2156 32.798 11.4587C33.1946 11.7017 33.5829 11.9621 33.963 12.2399L40.1301 9.63574L45.8307 19.5316L40.4928 23.5941C40.5274 23.8371 40.5447 24.0712 40.5447 24.2962V25.7024C40.5447 25.9288 40.5101 26.1635 40.441 26.4066L45.7789 30.4691L40.0782 40.3649L33.963 37.7607C33.5829 38.0385 33.1856 38.2989 32.771 38.542C32.3564 38.785 31.9418 38.9934 31.5272 39.167L30.6981 45.8337H19.2967ZM25.101 32.292C27.1049 32.292 28.8151 31.5802 30.2316 30.1566C31.6482 28.733 32.3564 27.0142 32.3564 25.0003C32.3564 22.9864 31.6482 21.2677 30.2316 19.8441C28.8151 18.4205 27.1049 17.7087 25.101 17.7087C23.0626 17.7087 21.3434 18.4205 19.9435 19.8441C18.5449 21.2677 17.8457 22.9864 17.8457 25.0003C17.8457 27.0142 18.5449 28.733 19.9435 30.1566C21.3434 31.5802 23.0626 32.292 25.101 32.292ZM25.101 28.1253C24.2373 28.1253 23.5035 27.8212 22.8996 27.2128C22.2942 26.6059 21.9916 25.8684 21.9916 25.0003C21.9916 24.1323 22.2942 23.3948 22.8996 22.7878C23.5035 22.1795 24.2373 21.8753 25.101 21.8753C25.9648 21.8753 26.6993 22.1795 27.3046 22.7878C27.9085 23.3948 28.2105 24.1323 28.2105 25.0003C28.2105 25.8684 27.9085 26.6059 27.3046 27.2128C26.6993 27.8212 25.9648 28.1253 25.101 28.1253ZM22.9244 41.667H27.0185L27.7441 36.1462C28.8151 35.8684 29.8088 35.46 30.725 34.9212C31.6399 34.3837 32.4774 33.733 33.2374 32.9691L38.368 35.1045L40.3892 31.5628L35.9323 28.1774C36.1051 27.6913 36.226 27.1788 36.2951 26.6399C36.3642 26.1024 36.3987 25.5559 36.3987 25.0003C36.3987 24.4448 36.3642 23.8975 36.2951 23.3587C36.226 22.8212 36.1051 22.3094 35.9323 21.8232L40.3892 18.4378L38.368 14.8962L33.2374 17.0837C32.4774 16.285 31.6399 15.6163 30.725 15.0774C29.8088 14.5399 28.8151 14.1323 27.7441 13.8545L27.0704 8.33366H22.9763L22.2507 13.8545C21.1797 14.1323 20.1867 14.5399 19.2719 15.0774C18.3556 15.6163 17.5174 16.2677 16.7573 17.0316L11.6267 14.8962L9.6056 18.4378L14.0625 21.7712C13.8897 22.292 13.7688 22.8128 13.6997 23.3337C13.6306 23.8545 13.5961 24.41 13.5961 25.0003C13.5961 25.5559 13.6306 26.0941 13.6997 26.6149C13.7688 27.1357 13.8897 27.6566 14.0625 28.1774L9.6056 31.5628L11.6267 35.1045L16.7573 32.917C17.5174 33.7156 18.3556 34.3837 19.2719 34.9212C20.1867 35.46 21.1797 35.8684 22.2507 36.1462L22.9244 41.667Z" fill="black"/>
</svg>
