<svg width="50" height="50" viewBox="0 0 50 50" fill="none" xmlns="http://www.w3.org/2000/svg">
<path d="M29.627 43.75V39.3571C33.0992 38.4286 35.8963 36.6429 38.0182 34C40.1401 31.3571 41.2011 28.3571 41.2011 25C41.2011 21.6429 40.1401 18.6429 38.0182 16C35.8963 13.3571 33.0992 11.5714 29.627 10.6429V6.25C34.411 7.25 38.3076 9.49071 41.3168 12.9721C44.3261 16.455 45.8307 20.4643 45.8307 25C45.8307 29.5357 44.3261 33.5443 41.3168 37.0257C38.3076 40.5086 34.411 42.75 29.627 43.75ZM4.16406 31.4821V18.625H13.4233L24.9974 7.91071V42.1964L13.4233 31.4821H4.16406ZM29.627 33.625V16.375C31.4403 17.1607 32.8585 18.3393 33.8817 19.9107C34.9033 21.4821 35.4141 23.1964 35.4141 25.0536C35.4141 26.875 34.9033 28.5621 33.8817 30.115C32.8585 31.6693 31.4403 32.8393 29.627 33.625ZM20.3678 18.3036L15.3909 22.9107H8.79369V27.1964H15.3909L20.3678 31.8036V18.3036Z" fill="#9E9696"/>
</svg>
